<?xml version="1.0" encoding="UTF-8"?><svg id="Layer_2" xmlns="http://www.w3.org/2000/svg" viewBox="0 0 200.25 56.69"><defs><style>.cls-1{fill:#e54238;}.cls-2{fill:#f59224;}.cls-3{fill:#a155a2;}</style></defs><g id="Layer_1-2"><rect id="shape" class="cls-3" x="23.72" y="1.96" width="9.46" height="9.46" transform="translate(3.6 22.07) rotate(-45)"/><polygon class="cls-2" points="21.76 6.69 28.45 0 35.13 6.69 21.76 6.69"/><polygon class="cls-1" points="11.96 40.4 16.61 45.05 27.34 34.32 26.14 33.12 22.49 29.47 16.61 35.35 9.7 28.44 16.62 21.29 26.08 21.29 26.08 21.29 16.63 11.83 16.63 11.83 16.63 11.84 16.61 11.83 11.96 16.48 0 28.44 11.96 40.4"/><polygon class="cls-3" points="16.63 11.83 16.62 11.83 16.62 11.84 16.62 11.84 16.62 21.29 26.08 21.29 26.08 21.29 16.63 11.83"/><polygon class="cls-3" points="26.14 33.12 22.49 29.47 16.61 35.35 16.61 45.05 16.61 45.05 27.34 34.32 26.14 33.12"/><polygon class="cls-2" points="16.61 11.83 11.96 16.48 0 28.44 9.7 28.44 16.61 21.3 16.61 11.83"/><polygon class="cls-1" points="44.73 16.28 40.08 11.63 29.35 22.36 30.56 23.56 34.2 27.21 40.08 21.33 46.99 28.24 40.07 35.39 30.61 35.39 30.61 35.39 40.07 44.85 40.07 44.85 40.07 44.84 40.08 44.85 44.73 40.2 56.69 28.24 44.73 16.28"/><polygon class="cls-2" points="40.07 44.85 40.07 44.85 40.07 44.84 40.07 44.84 40.07 35.39 30.61 35.39 30.61 35.39 40.07 44.85"/><polygon class="cls-2" points="30.56 23.56 34.2 27.21 40.08 21.33 40.08 11.63 40.08 11.63 29.35 22.36 30.56 23.56"/><polygon class="cls-3" points="40.09 44.85 44.73 40.2 56.69 28.24 46.99 28.24 40.09 35.38 40.09 44.85"/><polygon id="shape-2" class="cls-3" points="28.25 43.32 25.19 46.38 21.56 50.01 28.25 56.69 34.93 50.01 28.25 43.32"/><polygon class="cls-1" points="21.56 50.01 28.25 43.32 34.93 50.01 21.56 50.01"/><path d="M110.97,22.51c-5.73,0-10.41,4.5-10.41,9.99s4.68,10.02,10.41,10.02,10.48-4.47,10.48-10.02-4.75-9.99-10.48-9.99ZM110.97,37.98c-3,0-5.27-2.3-5.27-5.48s2.34-5.41,5.27-5.41,5.27,2.34,5.27,5.41-2.3,5.48-5.27,5.48Z"/><path d="M131.41,15.4l-5.17,4.61v2.5h-2.34v4.57h2.34v10.65c0,4.05,2.48,4.78,6.53,4.78.73,0,1.71-.07,2.34-.14v-4.4c-.31.03-.73.07-1.33.07-2.34,0-2.37-1.82-2.37-2.86v-8.1h3.84v-4.57h-3.84v-7.11Z"/><rect x="138.92" y="23.35" width="5.24" height="19.17"/><path d="M158.7,23.63h-3.46c0-1.29.14-3.04,2.48-3.28.66-.07,1.36,0,1.96.17l.28-4.23c-.84-.21-1.64-.31-2.31-.31-4.64,0-7.47,2.58-7.65,7.65h-2.16v4.47h2.16v14.42h5.24v-14.42h3.46v-4.47Z"/><rect x="138.9" y="15.26" width="5.29" height="5.29" transform="translate(25.16 100.43) rotate(-42.55)"/><polygon points="95.73 42.52 95.73 16.36 91.05 16.36 81.32 32.79 72.05 16.36 67.46 16.36 67.46 42.52 72.33 42.52 72.33 27.01 81.32 42.52 90.78 27.01 90.78 42.52 95.73 42.52"/><path d="M194.31,16.3h-23.2c-3.27,0-5.94,2.67-5.94,5.94v14.33c0,3.27,2.67,5.94,5.94,5.94h23.2c3.27,0,5.94-2.67,5.94-5.94v-14.33c0-3.27-2.67-5.94-5.94-5.94ZM185.82,30.8c0,4.18-2.86,6.9-7.28,6.9s-7.33-2.73-7.33-6.9v-9.69h3.53v9.69c0,3.08,2.37,3.86,3.8,3.86s3.75-.78,3.75-3.86v-9.69h3.53v9.69ZM194.21,37.71h-3.59v-16.6h3.59v16.6Z"/></g></svg>